<?xml version="1.0" encoding="UTF-8"?>
<svg xmlns="http://www.w3.org/2000/svg" xmlns:xlink="http://www.w3.org/1999/xlink" width="229" height="144" viewBox="0 0 229 144">
<defs>
<g>
<g id="glyph-0-0">
<path d="M 3.46875 -6.921875 L 5.046875 -6.921875 C 5.375 -6.921875 5.546875 -6.921875 5.546875 -7.234375 C 5.546875 -7.421875 5.4375 -7.421875 5.09375 -7.421875 L 3.578125 -7.421875 L 4.21875 -9.9375 C 4.28125 -10.171875 4.28125 -10.203125 4.28125 -10.328125 C 4.28125 -10.609375 4.0625 -10.765625 3.84375 -10.765625 C 3.703125 -10.765625 3.3125 -10.703125 3.171875 -10.15625 L 2.5 -7.421875 L 0.875 -7.421875 C 0.53125 -7.421875 0.375 -7.421875 0.375 -7.09375 C 0.375 -6.921875 0.5 -6.921875 0.828125 -6.921875 L 2.359375 -6.921875 L 1.21875 -2.375 C 1.078125 -1.78125 1.03125 -1.59375 1.03125 -1.375 C 1.03125 -0.5625 1.59375 0.171875 2.5625 0.171875 C 4.3125 0.171875 5.234375 -2.34375 5.234375 -2.46875 C 5.234375 -2.5625 5.171875 -2.625 5.0625 -2.625 C 5.03125 -2.625 4.953125 -2.625 4.921875 -2.546875 C 4.90625 -2.53125 4.890625 -2.515625 4.765625 -2.234375 C 4.40625 -1.375 3.609375 -0.171875 2.625 -0.171875 C 2.09375 -0.171875 2.0625 -0.609375 2.0625 -0.984375 C 2.0625 -1 2.0625 -1.328125 2.125 -1.53125 Z M 3.46875 -6.921875 "/>
</g>
</g>
<clipPath id="clip-0">
<path clip-rule="nonzero" d="M 221 131.703125 L 227 131.703125 L 227 142.292969 L 221 142.292969 Z M 221 131.703125 "/>
</clipPath>
</defs>
<path fill="none" stroke-width="1.2" stroke-linecap="butt" stroke-linejoin="round" stroke="rgb(0%, 0%, 0%)" stroke-opacity="1" stroke-miterlimit="10" d="M 184 760 L 184 696 L 232 696 L 232 760 Z M 184 760 " transform="matrix(1, 0, 0, -1, -23, 793)"/>
<path fill="none" stroke-width="1.2" stroke-linecap="butt" stroke-linejoin="round" stroke="rgb(40%, 40%, 40%)" stroke-opacity="1" stroke-miterlimit="10" d="M 156 792 L 156 744 L 120 744 L 120 792 Z M 156 792 " transform="matrix(1, 0, 0, -1, -23, 793)"/>
<path fill="none" stroke-width="1.2" stroke-linecap="butt" stroke-linejoin="round" stroke="rgb(40%, 40%, 40%)" stroke-opacity="1" stroke-miterlimit="10" d="M 124 788 L 124 784 L 132 784 L 132 788 Z M 124 788 " transform="matrix(1, 0, 0, -1, -23, 793)"/>
<path fill="none" stroke-width="1.2" stroke-linecap="butt" stroke-linejoin="round" stroke="rgb(40%, 40%, 40%)" stroke-opacity="1" stroke-miterlimit="10" d="M 148 772 L 148 768 L 144 768 L 144 772 Z M 148 772 " transform="matrix(1, 0, 0, -1, -23, 793)"/>
<path fill="none" stroke-width="1.2" stroke-linecap="butt" stroke-linejoin="round" stroke="rgb(40%, 40%, 40%)" stroke-opacity="1" stroke-miterlimit="10" d="M 128 760 L 128 756 L 132 756 L 132 760 Z M 128 760 " transform="matrix(1, 0, 0, -1, -23, 793)"/>
<path fill="none" stroke-width="1.2" stroke-linecap="butt" stroke-linejoin="round" stroke="rgb(40%, 40%, 40%)" stroke-opacity="1" stroke-miterlimit="10" d="M 140 760 L 140 756 L 144 756 L 144 760 Z M 140 760 " transform="matrix(1, 0, 0, -1, -23, 793)"/>
<path fill="none" stroke-width="1.2" stroke-linecap="butt" stroke-linejoin="round" stroke="rgb(50%, 50%, 50%)" stroke-opacity="1" stroke-miterlimit="10" d="M 132 712 L 132 664 L 96 664 L 96 712 Z M 132 712 " transform="matrix(1, 0, 0, -1, -23, 793)"/>
<path fill="none" stroke-width="1.2" stroke-linecap="butt" stroke-linejoin="round" stroke="rgb(50%, 50%, 50%)" stroke-opacity="1" stroke-miterlimit="10" d="M 108 704 L 108 700 L 120 700 L 120 704 Z M 108 704 " transform="matrix(1, 0, 0, -1, -23, 793)"/>
<path fill="none" stroke-width="1.2" stroke-linecap="butt" stroke-linejoin="round" stroke="rgb(50%, 50%, 50%)" stroke-opacity="1" stroke-miterlimit="10" d="M 124 692 L 124 688 L 120 688 L 120 692 Z M 124 692 " transform="matrix(1, 0, 0, -1, -23, 793)"/>
<path fill="none" stroke-width="1.2" stroke-linecap="butt" stroke-linejoin="round" stroke="rgb(50%, 50%, 50%)" stroke-opacity="1" stroke-miterlimit="10" d="M 104 680 L 104 676 L 120 676 L 120 680 Z M 104 680 " transform="matrix(1, 0, 0, -1, -23, 793)"/>
<path fill="none" stroke-width="1.2" stroke-linecap="butt" stroke-linejoin="round" stroke="rgb(60%, 60%, 60%)" stroke-opacity="1" stroke-miterlimit="10" d="M 48 784 L 48 736 L 84 736 L 84 784 Z M 48 784 " transform="matrix(1, 0, 0, -1, -23, 793)"/>
<path fill="none" stroke-width="1.2" stroke-linecap="butt" stroke-linejoin="round" stroke="rgb(60%, 60%, 60%)" stroke-opacity="1" stroke-miterlimit="10" d="M 68 768 L 68 764 L 76 764 L 76 768 Z M 68 768 " transform="matrix(1, 0, 0, -1, -23, 793)"/>
<path fill="none" stroke-width="1.2" stroke-linecap="butt" stroke-linejoin="round" stroke="rgb(60%, 60%, 60%)" stroke-opacity="1" stroke-miterlimit="10" d="M 56 748 L 56 744 L 68 744 L 68 748 Z M 56 748 " transform="matrix(1, 0, 0, -1, -23, 793)"/>
<path fill="none" stroke-width="1.2" stroke-linecap="butt" stroke-linejoin="round" stroke="rgb(70%, 70%, 70%)" stroke-opacity="1" stroke-miterlimit="10" d="M 32 728 L 32 680 L 68 680 L 68 728 Z M 32 728 " transform="matrix(1, 0, 0, -1, -23, 793)"/>
<path fill="none" stroke-width="0.8" stroke-linecap="butt" stroke-linejoin="round" stroke="rgb(0%, 0%, 0%)" stroke-opacity="1" stroke-miterlimit="10" d="M 24 656 L 240 656 " transform="matrix(1, 0, 0, -1, -23, 793)"/>
<path fill-rule="evenodd" fill="rgb(0%, 0%, 0%)" fill-opacity="1" stroke-width="0.8" stroke-linecap="butt" stroke-linejoin="round" stroke="rgb(0%, 0%, 0%)" stroke-opacity="1" stroke-miterlimit="10" d="M 240 656 L 233 658.332031 L 234.398438 656 L 233 653.667969 Z M 240 656 " transform="matrix(1, 0, 0, -1, -23, 793)"/>
<g clip-path="url(#clip-0)">
<g fill="rgb(0%, 0%, 0%)" fill-opacity="1">
<use xlink:href="#glyph-0-0" x="221" y="142.2945"/>
</g>
</g>
<path fill="none" stroke-width="0.8" stroke-linecap="butt" stroke-linejoin="round" stroke="rgb(99.2%, 74.9%, 43.5%)" stroke-opacity="1" stroke-miterlimit="10" d="M 192 752 L 68 720 " transform="matrix(1, 0, 0, -1, -23, 793)"/>
<path fill-rule="evenodd" fill="rgb(99.2%, 74.9%, 43.5%)" fill-opacity="1" stroke-width="0.8" stroke-linecap="butt" stroke-linejoin="round" stroke="rgb(99.2%, 74.9%, 43.5%)" stroke-opacity="1" stroke-miterlimit="10" d="M 68 720 L 75.359375 719.492188 L 73.421875 721.398438 L 74.195312 724.007812 Z M 68 720 " transform="matrix(1, 0, 0, -1, -23, 793)"/>
<path fill="none" stroke-width="0.8" stroke-linecap="butt" stroke-linejoin="round" stroke="rgb(89%, 10.2%, 10.9%)" stroke-opacity="1" stroke-miterlimit="10" d="M 200 716 L 132 692 " transform="matrix(1, 0, 0, -1, -23, 793)"/>
<path fill-rule="evenodd" fill="rgb(89%, 10.2%, 10.9%)" fill-opacity="1" stroke-width="0.8" stroke-linecap="butt" stroke-linejoin="round" stroke="rgb(89%, 10.2%, 10.9%)" stroke-opacity="1" stroke-miterlimit="10" d="M 132 692 L 139.375 692.132812 L 137.28125 693.863281 L 137.824219 696.527344 Z M 132 692 " transform="matrix(1, 0, 0, -1, -23, 793)"/>
<path fill="none" stroke-width="0.8" stroke-linecap="butt" stroke-linejoin="round" stroke="rgb(12.1%, 47%, 70.5%)" stroke-opacity="1" stroke-miterlimit="10" d="M 216 740 L 132 700 " transform="matrix(1, 0, 0, -1, -23, 793)"/>
<path fill-rule="evenodd" fill="rgb(12.1%, 47%, 70.5%)" fill-opacity="1" stroke-width="0.8" stroke-linecap="butt" stroke-linejoin="round" stroke="rgb(12.1%, 47%, 70.5%)" stroke-opacity="1" stroke-miterlimit="10" d="M 132 700 L 139.320312 700.90625 L 137.054688 702.40625 L 137.316406 705.113281 Z M 132 700 " transform="matrix(1, 0, 0, -1, -23, 793)"/>
<path fill="none" stroke-width="0.8" stroke-linecap="butt" stroke-linejoin="round" stroke="rgb(89%, 10.2%, 10.9%)" stroke-opacity="1" stroke-miterlimit="10" d="M 204 716 L 156 776 " transform="matrix(1, 0, 0, -1, -23, 793)"/>
<path fill-rule="evenodd" fill="rgb(89%, 10.2%, 10.9%)" fill-opacity="1" stroke-width="0.8" stroke-linecap="butt" stroke-linejoin="round" stroke="rgb(89%, 10.2%, 10.9%)" stroke-opacity="1" stroke-miterlimit="10" d="M 156 776 L 158.550781 769.078125 L 159.5 771.628906 L 162.191406 771.988281 Z M 156 776 " transform="matrix(1, 0, 0, -1, -23, 793)"/>
<path fill-rule="evenodd" fill="rgb(99.2%, 74.9%, 43.5%)" fill-opacity="0.5" stroke-width="1.2" stroke-linecap="butt" stroke-linejoin="round" stroke="rgb(99.2%, 74.9%, 43.5%)" stroke-opacity="1" stroke-miterlimit="10" d="M 188 756 L 188 748 L 196 748 L 196 756 Z M 188 756 " transform="matrix(1, 0, 0, -1, -23, 793)"/>
<path fill-rule="evenodd" fill="rgb(12.1%, 47%, 70.5%)" fill-opacity="0.5" stroke-width="1.2" stroke-linecap="butt" stroke-linejoin="round" stroke="rgb(12.1%, 47%, 70.5%)" stroke-opacity="1" stroke-miterlimit="10" d="M 208 744 L 208 736 L 220 736 L 220 744 Z M 208 744 " transform="matrix(1, 0, 0, -1, -23, 793)"/>
<path fill-rule="evenodd" fill="rgb(89%, 10.2%, 10.9%)" fill-opacity="0.5" stroke-width="1.2" stroke-linecap="butt" stroke-linejoin="round" stroke="rgb(89%, 10.2%, 10.9%)" stroke-opacity="1" stroke-miterlimit="10" d="M 188 712 L 188 720 L 208 720 L 208 712 Z M 188 712 " transform="matrix(1, 0, 0, -1, -23, 793)"/>
<path fill="none" stroke-width="0.8" stroke-linecap="butt" stroke-linejoin="round" stroke="rgb(12.1%, 47%, 70.5%)" stroke-opacity="1" stroke-miterlimit="10" d="M 212 740 L 156 784 " transform="matrix(1, 0, 0, -1, -23, 793)"/>
<path fill-rule="evenodd" fill="rgb(12.1%, 47%, 70.5%)" fill-opacity="1" stroke-width="0.8" stroke-linecap="butt" stroke-linejoin="round" stroke="rgb(12.1%, 47%, 70.5%)" stroke-opacity="1" stroke-miterlimit="10" d="M 156 784 L 160.0625 777.84375 L 160.402344 780.539062 L 162.945312 781.507812 Z M 156 784 " transform="matrix(1, 0, 0, -1, -23, 793)"/>
<path fill="none" stroke-width="0.8" stroke-linecap="butt" stroke-linejoin="round" stroke="rgb(89%, 10.2%, 10.9%)" stroke-opacity="1" stroke-miterlimit="10" d="M 196 716 L 84 744 " transform="matrix(1, 0, 0, -1, -23, 793)"/>
<path fill-rule="evenodd" fill="rgb(89%, 10.2%, 10.9%)" fill-opacity="1" stroke-width="0.8" stroke-linecap="butt" stroke-linejoin="round" stroke="rgb(89%, 10.2%, 10.9%)" stroke-opacity="1" stroke-miterlimit="10" d="M 84 744 L 90.226562 740.039062 L 89.433594 742.640625 L 91.355469 744.5625 Z M 84 744 " transform="matrix(1, 0, 0, -1, -23, 793)"/>
<path fill="none" stroke-width="0.8" stroke-linecap="butt" stroke-linejoin="round" stroke="rgb(89%, 10.2%, 10.9%)" stroke-opacity="1" stroke-miterlimit="10" d="M 192 716 L 68 716 " transform="matrix(1, 0, 0, -1, -23, 793)"/>
<path fill-rule="evenodd" fill="rgb(89%, 10.2%, 10.9%)" fill-opacity="1" stroke-width="0.8" stroke-linecap="butt" stroke-linejoin="round" stroke="rgb(89%, 10.2%, 10.9%)" stroke-opacity="1" stroke-miterlimit="10" d="M 68 716 L 75 713.667969 L 73.601562 716 L 75 718.332031 Z M 68 716 " transform="matrix(1, 0, 0, -1, -23, 793)"/>
<path fill-rule="evenodd" fill="rgb(69.8%, 87.4%, 54.1%)" fill-opacity="0.5" stroke-width="1.2" stroke-linecap="butt" stroke-linejoin="round" stroke="rgb(69.8%, 87.4%, 54.1%)" stroke-opacity="1" stroke-miterlimit="10" d="M 216 708 L 216 700 L 224 700 L 224 708 Z M 216 708 " transform="matrix(1, 0, 0, -1, -23, 793)"/>
<path fill="none" stroke-width="0.8" stroke-linecap="butt" stroke-linejoin="round" stroke="rgb(69.8%, 87.4%, 54.1%)" stroke-opacity="1" stroke-miterlimit="10" d="M 220 704 L 132 684 " transform="matrix(1, 0, 0, -1, -23, 793)"/>
<path fill-rule="evenodd" fill="rgb(69.8%, 87.4%, 54.1%)" fill-opacity="1" stroke-width="0.8" stroke-linecap="butt" stroke-linejoin="round" stroke="rgb(69.8%, 87.4%, 54.1%)" stroke-opacity="1" stroke-miterlimit="10" d="M 132 684 L 139.34375 683.277344 L 137.460938 685.242188 L 138.308594 687.824219 Z M 132 684 " transform="matrix(1, 0, 0, -1, -23, 793)"/>
</svg>
