<?xml version="1.0" encoding="UTF-8"?>
<svg id="Layer_1" xmlns="http://www.w3.org/2000/svg" version="1.1" viewBox="0 0 245.2 271.7">
  <!-- Generator: Adobe Illustrator 29.0.1, SVG Export Plug-In . SVG Version: 2.1.0 Build 192)  -->
  <defs>
    <style>
      .st0 {
        fill: #1d1d1b;
      }
    </style>
  </defs>
  <g id="Dot">
    <path id="Head" class="st0" d="M102.2,58.9c0-12.8,10.4-23.2,23.2-23.2s23.2,10.4,23.2,23.2-10.4,23.2-23.2,23.2-23.2-10.4-23.2-23.2Z"/>
  </g>
  <g id="Tau">
    <path id="Arms" class="st0" d="M122.6,96.8c31.9,0,61.3-6.7,85.2-18,6.1-2.9,11.1,5.4,5.9,9.6-24.8,20.3-56.6,32.5-91.2,32.5s-66.3-12.2-91.1-32.5c-5.2-4.2-.1-12.5,5.9-9.6,23.9,11.3,53.3,18,85.2,18h0Z"/>
    <path id="Legs" class="st0" d="M123.4,201.1c-6.6-33.4-1-66.3,13.5-94.3,1.9-3.6-.4-8-4.4-8.5-7.5-.9-15.1-1.2-22.6-.9-2.3,0-4.4,1.6-5.2,3.7-16.5,43.7-11.6,94.6,17.7,135.4.1.1.2.3.3.4,4,5.6,12.8.5,10-5.7-4.2-9.5-7.3-19.6-9.4-30.1h0Z"/>
  </g>
</svg>