<?xml version="1.0" encoding="UTF-8"?>
<svg xmlns="http://www.w3.org/2000/svg" viewBox="0 0 186.6 203.66">
  <defs>
    <style>
      .cls-1 {
        fill: #FFFFFF;
      }
    </style>
  </defs>
  <g id="Dot">
    <path id="Head" class="cls-1" d="M72.93,23.21c0-12.82,10.39-23.21,23.2-23.21s23.2,10.39,23.2,23.21-10.39,23.2-23.2,23.2-23.2-10.39-23.2-23.2Z"/>
  </g>
  <g id="Tau">
    <path id="Arms" class="cls-1" d="M93.3,61.17c31.89,0,61.35-6.67,85.23-17.97,6.05-2.86,11.11,5.36,5.92,9.6-24.84,20.28-56.57,32.45-91.15,32.45S27,73.08,2.16,52.8c-5.19-4.24-.13-12.46,5.92-9.6,23.88,11.3,53.34,17.97,85.23,17.97Z"/>
    <path id="Legs" class="cls-1" d="M94.09,165.4c-6.55-33.36-1.03-66.28,13.53-94.26,1.87-3.6-.37-8-4.4-8.48-7.49-.9-15.06-1.21-22.63-.93-2.3.09-4.36,1.56-5.17,3.72-16.54,43.7-11.57,94.59,17.74,135.37.11.15.22.3.32.45,4.02,5.55,12.78.54,10.03-5.73-4.16-9.48-7.35-19.55-9.43-30.13Z"/>
  </g>
</svg>